<svg width="110" height="29" viewBox="0 0 92 24" fill="none" xmlns="http://www.w3.org/2000/svg">
<path d="M2.37219 21V3.96H8.97219C12.9562 3.96 15.3322 6 15.3322 9.384C15.3322 12.792 12.9562 14.856 8.97219 14.856H5.49219V21H2.37219ZM5.49219 12.144H8.82819C10.9402 12.144 12.1162 11.208 12.1162 9.384C12.1162 7.608 10.9642 6.672 8.82819 6.672H5.49219V12.144ZM17.4256 21V8.184H20.3056L20.3776 10.68C20.8816 8.952 21.8656 8.184 23.4496 8.184H24.6256V10.824H23.4256C21.4576 10.824 20.4976 11.64 20.4976 13.608V21H17.4256ZM31.349 21.288C27.509 21.288 25.061 18.648 25.061 14.592C25.061 10.56 27.509 7.896 31.277 7.896C34.949 7.896 37.349 10.44 37.349 14.76V15.456H28.253C28.349 17.712 29.525 18.84 31.373 18.84C32.741 18.84 33.653 18.192 34.037 17.064L37.181 17.256C36.485 19.752 34.301 21.288 31.349 21.288ZM28.253 13.392H34.181C34.037 11.304 32.909 10.32 31.277 10.32C29.621 10.32 28.493 11.4 28.253 13.392ZM44.4783 21.288C40.6863 21.288 38.7183 19.488 38.5263 16.968L41.6703 16.824C41.8863 18.168 42.7263 18.936 44.5023 18.936C45.9183 18.936 46.8063 18.504 46.8063 17.496C46.8063 16.632 46.3503 16.248 43.9983 15.84C40.0623 15.168 38.8383 14.112 38.8383 11.928C38.8383 9.552 40.6863 7.896 44.2623 7.896C47.7183 7.896 49.4943 9.744 49.8303 12.216L46.7343 12.36C46.5183 11.064 45.6543 10.248 44.2143 10.248C42.7743 10.248 42.0303 10.896 42.0303 11.832C42.0303 12.864 42.7023 13.272 44.6463 13.584C48.6783 14.208 49.9743 15.312 49.9743 17.448C49.9743 19.92 47.7663 21.288 44.4783 21.288ZM57.0999 21.288C53.3079 21.288 51.3399 19.488 51.1479 16.968L54.2919 16.824C54.5079 18.168 55.3479 18.936 57.1239 18.936C58.5399 18.936 59.4279 18.504 59.4279 17.496C59.4279 16.632 58.9719 16.248 56.6199 15.84C52.6839 15.168 51.4599 14.112 51.4599 11.928C51.4599 9.552 53.3079 7.896 56.8839 7.896C60.3399 7.896 62.1159 9.744 62.4519 12.216L59.3559 12.36C59.1399 11.064 58.2759 10.248 56.8359 10.248C55.3959 10.248 54.6519 10.896 54.6519 11.832C54.6519 12.864 55.3239 13.272 57.2679 13.584C61.2999 14.208 62.5959 15.312 62.5959 17.448C62.5959 19.92 60.3879 21.288 57.0999 21.288Z" fill="black"/>
<path d="M64.5263 21L70.3103 12.456L64.5743 3.96H68.7983L72.5183 9.696L76.1423 3.96H80.3903L74.6543 12.408L80.4623 21H76.2143L72.4703 15.168L68.7743 21H64.5263Z" fill="url(#paint0_linear_2185_2)"/>
<defs>
<linearGradient id="paint0_linear_2185_2" x1="88.2857" y1="30" x2="62.7674" y2="28.9121" gradientUnits="userSpaceOnUse">
<stop stop-color="#106EFD"/>
<stop offset="1" stop-color="#41E2F8"/>
</linearGradient>
</defs>
</svg>
