<svg xmlns="http://www.w3.org/2000/svg" viewBox="0 0 92 25" fill="none">
<path d="M2.35828 21V3.96H8.02228C13.4463 3.96 16.4943 7.032 16.4943 12.504C16.4943 17.952 13.5183 21 8.16628 21H2.35828ZM5.47828 18.288H8.02228C11.5743 18.288 13.2783 16.392 13.2783 12.504C13.2783 8.568 11.5743 6.672 8.02228 6.672H5.47828V18.288ZM18.7242 21V8.184H21.6042L21.6762 10.68C22.1802 8.952 23.1642 8.184 24.7482 8.184H25.9242V10.824H24.7242C22.7562 10.824 21.7962 11.64 21.7962 13.608V21H18.7242ZM31.9135 21.288C29.2975 21.288 27.6895 19.488 27.6895 16.44V8.184H30.7615V15.672C30.7615 17.832 31.4575 18.792 32.9455 18.792C34.6015 18.792 35.5615 17.664 35.5615 15.552V8.184H38.6335V21H35.8255L35.7775 18.912C35.1055 20.472 33.7855 21.288 31.9135 21.288ZM41.5298 24.6V8.184H44.4818L44.5298 10.104C45.2738 8.664 46.6658 7.896 48.3698 7.896C52.0178 7.896 53.8178 10.896 53.8178 14.592C53.8178 18.288 51.9938 21.288 48.3458 21.288C46.7138 21.288 45.2978 20.52 44.6018 19.248V24.6H41.5298ZM47.6258 18.792C49.4978 18.792 50.6258 17.232 50.6258 14.592C50.6258 11.952 49.4978 10.392 47.6258 10.392C45.7538 10.392 44.6018 11.808 44.6018 14.592C44.6018 17.376 45.7298 18.792 47.6258 18.792ZM59.6292 21.288C56.9412 21.288 55.1652 20.016 55.1652 17.784C55.1652 15.576 56.5332 14.4 59.3412 13.848L63.5892 13.008C63.5892 11.208 62.7492 10.272 61.1172 10.272C59.6292 10.272 58.7892 10.968 58.5012 12.264L55.3812 12.12C55.8852 9.432 57.9492 7.896 61.1172 7.896C64.7652 7.896 66.6612 9.816 66.6612 13.224V17.88C66.6612 18.576 66.9012 18.768 67.3812 18.768H67.7892V21C67.5732 21.048 67.0932 21.096 66.6612 21.096C65.2692 21.096 64.2372 20.592 63.9972 19.032C63.3492 20.4 61.7172 21.288 59.6292 21.288ZM60.2532 19.056C62.2932 19.056 63.5892 17.76 63.5892 15.816V15.096L60.2772 15.768C58.9092 16.032 58.3572 16.608 58.3572 17.496C58.3572 18.504 59.0292 19.056 60.2532 19.056ZM72.1887 21C70.3167 21 69.1167 20.112 69.1167 17.976V3.96H72.1887V17.664C72.1887 18.336 72.5247 18.624 73.1487 18.624H74.0847V21H72.1887Z" fill="black"/>
<path d="M75.5263 21L81.3103 12.456L75.5743 3.96H79.7983L83.5183 9.696L87.1423 3.96H91.3903L85.6543 12.408L91.4623 21H87.2143L83.4703 15.168L79.7743 21H75.5263Z" fill="url(#paint0_linear_38_436)"/>
<defs>
<linearGradient id="paint0_linear_38_436" x1="99.2857" y1="30" x2="73.7674" y2="28.9121" gradientUnits="userSpaceOnUse">
<stop stop-color="#106EFD"/>
<stop offset="1" stop-color="#41E2F8"/>
</linearGradient>
</defs>
</svg>
